# xmcd
#
# Track frame offsets:
#	150
#	15813
#	29478
#	41359
#	64299
#	80825
#	93868
#	109460
#	125004
#	145576
#
# Disc length: 2145 seconds
#
# Revision: 1
# Processed by: cddbd v1.5.2PL0 Copyright (c) Steve Scherf et al.
# Submitted via: audiograbber 1.83.01
#
DISCID=80085f0a
DTITLE=Appaloosa - Stále stejné sny
DYEAR=2004
DGENRE=Country
TTITLE0=Rocky Top
TTITLE1=Prvni jarni vitr
TTITLE2=Let
TTITLE3=Colorado, dobre rano!
TTITLE4=Lod
TTITLE5=Ja se ptam
TTITLE6=Stena Trollu
TTITLE7=No tak Joe!
TTITLE8=Severni stena
TTITLE9=Stari znami
EXTD=
EXTT0=
EXTT1=
EXTT2=
EXTT3=
EXTT4=
EXTT5=
EXTT6=
EXTT7=
EXTT8=
EXTT9=
PLAYORDER=
